# xmcd
# 
# Track frame offsets:
#     150
#     23331
#     44830
#     62977
#     89720
#     108935
#     135090
#     151487
#     176934
#     201905
#     218477
# 
# Disc length: 3253
# 
# Revision: 0
# Processed by: cddbd v1.5.2PL0 Copyright (c) Steve Scherf et al.
# Submitted via: BonkEnc v1.0.15
# 
DISCID=980cb30b
DTITLE=The Black Crowes c - Amorica
DYEAR=1994
DGENRE=Rock
TTITLE0=Gone
TTITLE1=A Conspiracy
TTITLE2=High Head Blues
TTITLE3=Cursed Diamond
TTITLE4=Nonfiction
TTITLE5=She Gave Good Sunflower
TTITLE6=P .25 London
TTITLE7=Balad In Urgency
TTITLE8=Wiser Time
TTITLE9=Downtown Money Waster
TTITLE10=Descending
EXTD=YEAR: 1994
EXTT0=
EXTT1=
EXTT2=
EXTT3=
EXTT4=
EXTT5=
EXTT6=
EXTT7=
EXTT8=
EXTT9=
EXTT10=
PLAYORDER=
